<svg width="502" height="500" viewBox="0 0 502 500" fill="none" xmlns="http://www.w3.org/2000/svg">
<path d="M464.518 248.896C464.518 388.714 400.772 420.602 264.873 448.636C156.883 470.912 44.9129 340.706 73.2835 248.896C101.654 157.087 154.612 49.1573 264.873 49.1573C423.889 49.1573 464.518 138.584 464.518 248.896Z" fill="#EABEB4"/>
<path d="M240.996 48.295C309.484 31.219 356.227 39.9773 388.718 63.8117C421.405 87.7899 440.735 127.781 452.62 175.452C467.647 235.72 462.848 274.953 441.557 305.718C419.963 336.921 380.839 360.371 324.509 387.421C281.918 407.872 229.961 397.053 188.774 369.925C147.494 342.736 118.752 300.323 121.011 259.653C123.395 216.745 130.232 169.492 148.164 130.131C166.024 90.9259 194.732 59.8301 240.996 48.295Z" stroke="#F3E9E2" stroke-width="10"/>
<path d="M327.03 101.208C388.765 135.429 416.977 173.713 424.484 213.303C432.037 253.132 418.9 295.562 395.081 338.532C364.968 392.858 334.702 418.278 298.149 426.258C261.076 434.352 216.469 424.819 156.824 406.185C111.727 392.096 81.1066 348.748 69.4857 300.818C57.839 252.781 65.7438 202.16 95.1328 173.956C126.139 144.201 163.366 114.306 203.324 97.7481C243.124 81.2559 285.327 78.0924 327.03 101.208Z" stroke="#EBEBEF" stroke-width="10"/>
</svg>
