<svg width="201" height="26" viewBox="0 0 201 26" fill="none" xmlns="http://www.w3.org/2000/svg">
<line x1="2" y1="20" x2="200" y2="20" stroke="#F3E9E2" stroke-width="2" stroke-linecap="round"/>
<path d="M6.48 21.234C5.58 21.234 4.554 21.006 3.402 20.55C3.246 20.478 3.096 20.442 2.952 20.442C2.784 20.442 2.61 20.502 2.43 20.622C2.25 20.73 2.034 20.91 1.782 21.162L0.954 17.634L0.918 17.472C0.918 17.448 0.93 17.424 0.954 17.4C0.99 17.376 1.02 17.358 1.044 17.346C1.08 17.334 1.104 17.322 1.116 17.31C1.14 17.298 1.176 17.292 1.224 17.292C1.272 17.292 1.338 17.34 1.422 17.436C2.766 19.476 4.392 20.496 6.3 20.496C7.068 20.496 7.71 20.298 8.226 19.902C8.754 19.506 9.018 18.918 9.018 18.138C9.018 17.226 8.52 16.548 7.524 16.104C7.032 15.888 6.372 15.648 5.544 15.384C5.436 15.348 5.166 15.258 4.734 15.114C4.302 14.97 3.918 14.814 3.582 14.646C2.166 13.926 1.458 12.846 1.458 11.406C1.458 10.866 1.584 10.302 1.836 9.714C2.088 9.126 2.526 8.622 3.15 8.202C3.786 7.77 4.626 7.554 5.67 7.554C6.042 7.554 6.402 7.596 6.75 7.68C7.11 7.764 7.542 7.89 8.046 8.058C8.238 8.13 8.406 8.166 8.55 8.166C8.886 8.166 9.222 7.962 9.558 7.554L10.476 10.668L10.512 10.794C10.512 10.866 10.458 10.92 10.35 10.956C10.278 10.98 10.224 10.992 10.188 10.992C10.128 10.992 10.068 10.956 10.008 10.884C9.864 10.644 9.606 10.32 9.234 9.912C8.862 9.492 8.358 9.102 7.722 8.742C7.098 8.37 6.396 8.184 5.616 8.184C4.92 8.184 4.386 8.334 4.014 8.634C3.642 8.922 3.396 9.234 3.276 9.57C3.156 9.906 3.096 10.194 3.096 10.434C3.096 11.202 3.492 11.796 4.284 12.216C4.536 12.348 4.866 12.492 5.274 12.648C5.694 12.792 6.12 12.936 6.552 13.08C7.56 13.404 8.316 13.68 8.82 13.908C9.672 14.316 10.278 14.814 10.638 15.402C10.998 15.978 11.178 16.602 11.178 17.274C11.178 18.018 10.992 18.69 10.62 19.29C10.26 19.89 9.726 20.364 9.018 20.712C8.31 21.06 7.464 21.234 6.48 21.234ZM21.9791 19.416C22.0751 19.416 22.1231 19.458 22.1231 19.542L22.1051 19.65C21.9611 20.106 21.6911 20.478 21.2951 20.766C20.9111 21.054 20.5091 21.198 20.0891 21.198C19.2251 21.198 18.6671 20.796 18.4151 19.992C17.9471 20.4 17.4251 20.712 16.8491 20.928C16.2731 21.144 15.7031 21.252 15.1391 21.252C14.3951 21.252 13.8131 21.084 13.3931 20.748C12.9731 20.4 12.7631 19.914 12.7631 19.29C12.7631 18.378 13.2611 17.652 14.2571 17.112C14.5331 16.968 14.8451 16.854 15.1931 16.77C15.5411 16.674 16.0091 16.566 16.5971 16.446C16.7771 16.41 17.0351 16.356 17.3711 16.284C17.7191 16.2 18.0251 16.122 18.2891 16.05V15.24C18.2891 14.556 18.2651 14.07 18.2171 13.782C18.1811 13.482 18.0851 13.236 17.9291 13.044C17.7011 12.744 17.3471 12.594 16.8671 12.594C16.5431 12.594 16.2671 12.696 16.0391 12.9C15.8111 13.092 15.6251 13.47 15.4811 14.034C15.3731 14.442 15.2111 14.748 14.9951 14.952C14.7911 15.144 14.5511 15.24 14.2751 15.24C13.9991 15.24 13.7531 15.162 13.5371 15.006C13.3211 14.838 13.2131 14.604 13.2131 14.304C13.2131 14.076 13.3031 13.794 13.4831 13.458C13.6751 13.11 14.0411 12.792 14.5811 12.504C15.1211 12.216 15.8831 12.072 16.8671 12.072C17.5871 12.072 18.1931 12.168 18.6851 12.36C19.1771 12.552 19.5611 12.81 19.8371 13.134C20.0531 13.374 20.1971 13.638 20.2691 13.926C20.3411 14.214 20.3771 14.568 20.3771 14.988C20.3771 15.804 20.3711 16.428 20.3591 16.86L20.3411 18.876C20.3411 19.392 20.4011 19.728 20.5211 19.884C20.6531 20.04 20.8091 20.118 20.9891 20.118C21.1331 20.118 21.2831 20.07 21.4391 19.974C21.5951 19.866 21.7331 19.71 21.8531 19.506C21.8891 19.446 21.9311 19.416 21.9791 19.416ZM16.3451 20.262C16.6691 20.262 16.9991 20.196 17.3351 20.064C17.6831 19.932 18.0011 19.74 18.2891 19.488C18.2531 19.212 18.2351 18.936 18.2351 18.66L18.2711 16.554C17.1191 16.842 16.2731 17.196 15.7331 17.616C15.1931 18.024 14.9231 18.534 14.9231 19.146C14.9231 19.47 15.0491 19.74 15.3011 19.956C15.5531 20.16 15.9011 20.262 16.3451 20.262ZM32.3887 12.27C32.4728 12.27 32.5148 12.336 32.5148 12.468C32.5148 12.552 32.4968 12.606 32.4608 12.63C32.4248 12.654 32.3468 12.684 32.2268 12.72C31.9388 12.768 31.6748 12.9 31.4348 13.116C31.2068 13.32 30.9728 13.668 30.7328 14.16C30.3488 14.964 29.2508 17.418 27.4388 21.522L27.1688 22.116C26.6528 23.232 26.1368 24.006 25.6208 24.438C25.1168 24.87 24.5948 25.086 24.0548 25.086C23.5268 25.086 23.1188 24.966 22.8308 24.726C22.5428 24.498 22.3988 24.234 22.3988 23.934C22.3988 23.646 22.4948 23.412 22.6868 23.232C22.8788 23.052 23.1188 22.962 23.4067 22.962C23.5988 22.962 23.7608 22.98 23.8928 23.016C24.0248 23.064 24.1688 23.13 24.3248 23.214C24.4688 23.298 24.6008 23.358 24.7208 23.394C24.8408 23.43 24.9788 23.448 25.1348 23.448C25.3748 23.448 25.5908 23.34 25.7828 23.124C25.9868 22.908 26.2028 22.572 26.4308 22.116C26.5868 21.804 26.7788 21.39 27.0068 20.874L23.7668 13.512C23.6108 13.2 23.4488 12.99 23.2808 12.882C23.1128 12.762 22.8788 12.702 22.5788 12.702C22.4948 12.702 22.4528 12.624 22.4528 12.468C22.4528 12.336 22.4948 12.27 22.5788 12.27H26.8628C26.9468 12.27 26.9888 12.336 26.9888 12.468C26.9888 12.612 26.9408 12.69 26.8447 12.702C26.5568 12.726 26.3288 12.786 26.1608 12.882C26.0048 12.966 25.9268 13.086 25.9268 13.242C25.9268 13.314 25.9568 13.422 26.0168 13.566C26.0768 13.746 26.3228 14.352 26.7548 15.384C27.1988 16.416 27.5048 17.136 27.6728 17.544L28.0868 18.516C29.2508 15.936 29.9108 14.424 30.0668 13.98C30.1148 13.812 30.1388 13.692 30.1388 13.62C30.1388 13.308 29.9888 13.074 29.6888 12.918C29.4008 12.762 29.0888 12.684 28.7528 12.684C28.6688 12.684 28.6268 12.612 28.6268 12.468C28.6268 12.336 28.6688 12.27 28.7528 12.27H32.3887ZM42.5807 19.416C42.6767 19.416 42.7247 19.458 42.7247 19.542L42.7067 19.65C42.5627 20.106 42.2927 20.478 41.8967 20.766C41.5127 21.054 41.1107 21.198 40.6907 21.198C39.8267 21.198 39.2687 20.796 39.0167 19.992C38.5487 20.4 38.0267 20.712 37.4507 20.928C36.8747 21.144 36.3047 21.252 35.7407 21.252C34.9967 21.252 34.4147 21.084 33.9947 20.748C33.5747 20.4 33.3647 19.914 33.3647 19.29C33.3647 18.378 33.8627 17.652 34.8587 17.112C35.1347 16.968 35.4467 16.854 35.7947 16.77C36.1427 16.674 36.6107 16.566 37.1987 16.446C37.3787 16.41 37.6367 16.356 37.9727 16.284C38.3207 16.2 38.6267 16.122 38.8907 16.05V15.24C38.8907 14.556 38.8667 14.07 38.8187 13.782C38.7827 13.482 38.6867 13.236 38.5307 13.044C38.3027 12.744 37.9487 12.594 37.4687 12.594C37.1447 12.594 36.8687 12.696 36.6407 12.9C36.4127 13.092 36.2267 13.47 36.0827 14.034C35.9747 14.442 35.8127 14.748 35.5967 14.952C35.3927 15.144 35.1527 15.24 34.8767 15.24C34.6007 15.24 34.3547 15.162 34.1387 15.006C33.9227 14.838 33.8147 14.604 33.8147 14.304C33.8147 14.076 33.9047 13.794 34.0847 13.458C34.2767 13.11 34.6427 12.792 35.1827 12.504C35.7227 12.216 36.4847 12.072 37.4687 12.072C38.1887 12.072 38.7947 12.168 39.2867 12.36C39.7787 12.552 40.1627 12.81 40.4387 13.134C40.6547 13.374 40.7987 13.638 40.8707 13.926C40.9427 14.214 40.9787 14.568 40.9787 14.988C40.9787 15.804 40.9727 16.428 40.9607 16.86L40.9427 18.876C40.9427 19.392 41.0027 19.728 41.1227 19.884C41.2547 20.04 41.4107 20.118 41.5907 20.118C41.7347 20.118 41.8847 20.07 42.0407 19.974C42.1967 19.866 42.3347 19.71 42.4547 19.506C42.4907 19.446 42.5327 19.416 42.5807 19.416ZM36.9467 20.262C37.2707 20.262 37.6007 20.196 37.9367 20.064C38.2847 19.932 38.6027 19.74 38.8907 19.488C38.8547 19.212 38.8367 18.936 38.8367 18.66L38.8727 16.554C37.7207 16.842 36.8747 17.196 36.3347 17.616C35.7947 18.024 35.5247 18.534 35.5247 19.146C35.5247 19.47 35.6507 19.74 35.9027 19.956C36.1547 20.16 36.5027 20.262 36.9467 20.262ZM53.9263 20.568C54.0103 20.568 54.0523 20.634 54.0523 20.766C54.0523 20.922 54.0103 21 53.9263 21H49.5163C49.4323 21 49.3903 20.922 49.3903 20.766C49.3903 20.634 49.4323 20.568 49.5163 20.568H49.7143C49.8823 20.568 50.0143 20.526 50.1103 20.442C50.2183 20.358 50.2723 20.256 50.2723 20.136C50.2723 19.968 50.2123 19.818 50.0923 19.686C49.9603 19.482 49.4263 18.738 48.4903 17.454C48.2023 17.07 47.9863 16.77 47.8423 16.554L46.8703 17.418V19.704C46.8703 20.064 46.9603 20.298 47.1403 20.406C47.3203 20.514 47.5783 20.568 47.9143 20.568H48.1123C48.1963 20.568 48.2383 20.634 48.2383 20.766C48.2383 20.922 48.1963 21 48.1123 21H43.5403C43.4563 21 43.4143 20.922 43.4143 20.766C43.4143 20.634 43.4563 20.568 43.5403 20.568H43.7563C44.0923 20.568 44.3503 20.514 44.5303 20.406C44.7103 20.298 44.8003 20.064 44.8003 19.704L44.7643 9.624C44.7643 9.24 44.6743 8.982 44.4943 8.85C44.3143 8.718 44.0263 8.652 43.6303 8.652C43.5103 8.652 43.4503 8.562 43.4503 8.382C43.4503 8.31 43.4863 8.268 43.5583 8.256C43.6783 8.208 44.7823 7.974 46.8703 7.554V16.626C48.7303 15.042 49.8043 14.082 50.0923 13.746C50.2123 13.614 50.2723 13.452 50.2723 13.26C50.2723 13.092 50.2003 12.954 50.0563 12.846C49.9123 12.726 49.7143 12.666 49.4623 12.666H49.2823C49.1863 12.666 49.1383 12.6 49.1383 12.468C49.1383 12.324 49.1863 12.252 49.2823 12.252H53.4763C53.5723 12.252 53.6203 12.324 53.6203 12.468C53.6203 12.588 53.5723 12.654 53.4763 12.666L53.2423 12.702C52.8463 12.738 52.4743 12.846 52.1263 13.026C51.7783 13.206 51.3523 13.518 50.8483 13.962L49.2823 15.312C49.7263 15.96 50.2603 16.722 50.8843 17.598C51.5203 18.474 52.0423 19.194 52.4503 19.758C52.6903 20.058 52.8943 20.268 53.0623 20.388C53.2303 20.508 53.4523 20.568 53.7283 20.568H53.9263ZM64.1315 19.416C64.2275 19.416 64.2755 19.458 64.2755 19.542L64.2575 19.65C64.1135 20.106 63.8435 20.478 63.4475 20.766C63.0635 21.054 62.6615 21.198 62.2415 21.198C61.3775 21.198 60.8195 20.796 60.5675 19.992C60.0995 20.4 59.5775 20.712 59.0015 20.928C58.4255 21.144 57.8555 21.252 57.2915 21.252C56.5475 21.252 55.9655 21.084 55.5455 20.748C55.1255 20.4 54.9155 19.914 54.9155 19.29C54.9155 18.378 55.4135 17.652 56.4095 17.112C56.6855 16.968 56.9975 16.854 57.3455 16.77C57.6935 16.674 58.1615 16.566 58.7495 16.446C58.9295 16.41 59.1875 16.356 59.5235 16.284C59.8715 16.2 60.1775 16.122 60.4415 16.05V15.24C60.4415 14.556 60.4175 14.07 60.3695 13.782C60.3335 13.482 60.2375 13.236 60.0815 13.044C59.8535 12.744 59.4995 12.594 59.0195 12.594C58.6955 12.594 58.4195 12.696 58.1915 12.9C57.9635 13.092 57.7775 13.47 57.6335 14.034C57.5255 14.442 57.3635 14.748 57.1475 14.952C56.9435 15.144 56.7035 15.24 56.4275 15.24C56.1515 15.24 55.9055 15.162 55.6895 15.006C55.4735 14.838 55.3655 14.604 55.3655 14.304C55.3655 14.076 55.4555 13.794 55.6355 13.458C55.8275 13.11 56.1935 12.792 56.7335 12.504C57.2735 12.216 58.0355 12.072 59.0195 12.072C59.7395 12.072 60.3455 12.168 60.8375 12.36C61.3295 12.552 61.7135 12.81 61.9895 13.134C62.2055 13.374 62.3495 13.638 62.4215 13.926C62.4935 14.214 62.5295 14.568 62.5295 14.988C62.5295 15.804 62.5235 16.428 62.5115 16.86L62.4935 18.876C62.4935 19.392 62.5535 19.728 62.6735 19.884C62.8055 20.04 62.9615 20.118 63.1415 20.118C63.2855 20.118 63.4355 20.07 63.5915 19.974C63.7475 19.866 63.8855 19.71 64.0055 19.506C64.0415 19.446 64.0835 19.416 64.1315 19.416ZM58.4975 20.262C58.8215 20.262 59.1515 20.196 59.4875 20.064C59.8355 19.932 60.1535 19.74 60.4415 19.488C60.4055 19.212 60.3875 18.936 60.3875 18.66L60.4235 16.554C59.2715 16.842 58.4255 17.196 57.8855 17.616C57.3455 18.024 57.0755 18.534 57.0755 19.146C57.0755 19.47 57.2015 19.74 57.4535 19.956C57.7055 20.16 58.0535 20.262 58.4975 20.262ZM73.0998 21C73.0158 21 72.9738 20.922 72.9738 20.766C72.9738 20.634 73.0158 20.568 73.0998 20.568H73.3338C74.3418 20.568 74.8458 20.082 74.8458 19.11V9.408C74.8458 8.628 74.4018 8.238 73.5138 8.238C73.4418 8.238 73.3218 8.25 73.1538 8.274C72.5778 8.37 71.9598 8.646 71.2998 9.102C70.6518 9.546 70.1658 10.002 69.8418 10.47C69.7938 10.554 69.7338 10.596 69.6618 10.596C69.6258 10.596 69.5838 10.584 69.5358 10.56C69.4518 10.512 69.4098 10.458 69.4098 10.398L69.4278 10.254L70.3998 7.734H81.6678L81.8478 8.202C82.3278 9.474 82.5798 10.158 82.6038 10.254C82.6398 10.326 82.6578 10.374 82.6578 10.398C82.6578 10.458 82.6038 10.512 82.4958 10.56C82.4478 10.584 82.4118 10.596 82.3878 10.596C82.3278 10.596 82.2738 10.554 82.2258 10.47C81.9018 10.002 81.4098 9.546 80.7498 9.102C80.0898 8.646 79.4778 8.37 78.9138 8.274C78.7458 8.25 78.6198 8.238 78.5358 8.238C77.6598 8.238 77.2218 8.628 77.2218 9.408V19.11C77.2218 19.674 77.3598 20.058 77.6358 20.262C77.9118 20.466 78.2778 20.568 78.7338 20.568H78.9498C79.0338 20.568 79.0758 20.634 79.0758 20.766C79.0758 20.922 79.0338 21 78.9498 21H73.0998ZM89.5191 21.234C88.6191 21.234 87.5931 21.006 86.4411 20.55C86.2851 20.478 86.1351 20.442 85.9911 20.442C85.8231 20.442 85.6491 20.502 85.4691 20.622C85.2891 20.73 85.0731 20.91 84.8211 21.162L83.9931 17.634L83.9571 17.472C83.9571 17.448 83.9691 17.424 83.9931 17.4C84.0291 17.376 84.0591 17.358 84.0831 17.346C84.1191 17.334 84.1431 17.322 84.1551 17.31C84.1791 17.298 84.2151 17.292 84.2631 17.292C84.3111 17.292 84.3771 17.34 84.4611 17.436C85.8051 19.476 87.4311 20.496 89.3391 20.496C90.1071 20.496 90.7491 20.298 91.2651 19.902C91.7931 19.506 92.0571 18.918 92.0571 18.138C92.0571 17.226 91.5591 16.548 90.5631 16.104C90.0711 15.888 89.4111 15.648 88.5831 15.384C88.4751 15.348 88.2051 15.258 87.7731 15.114C87.3411 14.97 86.9571 14.814 86.6211 14.646C85.2051 13.926 84.4971 12.846 84.4971 11.406C84.4971 10.866 84.6231 10.302 84.8751 9.714C85.1271 9.126 85.5651 8.622 86.1891 8.202C86.8251 7.77 87.6651 7.554 88.7091 7.554C89.0811 7.554 89.4411 7.596 89.7891 7.68C90.1491 7.764 90.5811 7.89 91.0851 8.058C91.2771 8.13 91.4451 8.166 91.5891 8.166C91.9251 8.166 92.2611 7.962 92.5971 7.554L93.5151 10.668L93.5511 10.794C93.5511 10.866 93.4971 10.92 93.3891 10.956C93.3171 10.98 93.2631 10.992 93.2271 10.992C93.1671 10.992 93.1071 10.956 93.0471 10.884C92.9031 10.644 92.6451 10.32 92.2731 9.912C91.9011 9.492 91.3971 9.102 90.7611 8.742C90.1371 8.37 89.4351 8.184 88.6551 8.184C87.9591 8.184 87.4251 8.334 87.0531 8.634C86.6811 8.922 86.4351 9.234 86.3151 9.57C86.1951 9.906 86.1351 10.194 86.1351 10.434C86.1351 11.202 86.5311 11.796 87.3231 12.216C87.5751 12.348 87.9051 12.492 88.3131 12.648C88.7331 12.792 89.1591 12.936 89.5911 13.08C90.5991 13.404 91.3551 13.68 91.8591 13.908C92.7111 14.316 93.3171 14.814 93.6771 15.402C94.0371 15.978 94.2171 16.602 94.2171 17.274C94.2171 18.018 94.0311 18.69 93.6591 19.29C93.2991 19.89 92.7651 20.364 92.0571 20.712C91.3491 21.06 90.5031 21.234 89.5191 21.234ZM102.948 21.234C101.076 21.234 99.7142 20.862 98.8622 20.118C98.0222 19.362 97.6022 18.258 97.6022 16.806V9.624C97.6022 9.06 97.4582 8.682 97.1702 8.49C96.8942 8.286 96.5282 8.184 96.0722 8.184H95.8382C95.7542 8.184 95.7122 8.106 95.7122 7.95C95.7122 7.806 95.7542 7.734 95.8382 7.734H101.67C101.754 7.734 101.796 7.806 101.796 7.95C101.796 8.106 101.754 8.184 101.67 8.184H101.454C100.986 8.184 100.614 8.286 100.338 8.49C100.074 8.682 99.9422 9.06 99.9422 9.624V16.104C99.9422 16.896 100.008 17.604 100.14 18.228C100.272 18.852 100.572 19.392 101.04 19.848C101.508 20.304 102.21 20.532 103.146 20.532C104.502 20.532 105.426 20.076 105.918 19.164C106.41 18.252 106.656 17.106 106.656 15.726V9.786C106.656 9.282 106.494 8.886 106.17 8.598C105.846 8.31 105.492 8.166 105.108 8.166H104.928C104.844 8.166 104.802 8.094 104.802 7.95C104.802 7.806 104.844 7.734 104.928 7.734H109.122C109.206 7.734 109.248 7.806 109.248 7.95C109.248 8.094 109.206 8.166 109.122 8.166H108.942C108.558 8.166 108.204 8.31 107.88 8.598C107.556 8.886 107.394 9.282 107.394 9.786L107.358 16.248C107.358 17.844 106.974 19.074 106.206 19.938C105.438 20.802 104.352 21.234 102.948 21.234ZM111.772 24.06C111.304 24.06 110.884 23.976 110.512 23.808C110.152 23.64 109.87 23.43 109.666 23.178C109.462 22.926 109.36 22.674 109.36 22.422C109.36 22.134 109.45 21.906 109.63 21.738C109.798 21.582 109.99 21.504 110.206 21.504C110.542 21.504 110.866 21.642 111.178 21.918C111.346 22.05 111.58 22.302 111.88 22.674C112.036 22.854 112.168 22.992 112.276 23.088C112.396 23.184 112.516 23.232 112.636 23.232C112.72 23.232 112.798 23.214 112.87 23.178C112.942 23.142 112.99 23.1 113.014 23.052C113.278 22.848 113.47 22.422 113.59 21.774C113.71 21.126 113.77 20.172 113.77 18.912V9.642C113.77 9.066 113.626 8.682 113.338 8.49C113.062 8.286 112.696 8.184 112.24 8.184H112.006C111.922 8.184 111.88 8.112 111.88 7.968C111.88 7.812 111.922 7.734 112.006 7.734H117.838C117.934 7.734 117.982 7.812 117.982 7.968C117.982 8.112 117.934 8.184 117.838 8.184H117.622C117.178 8.184 116.812 8.286 116.524 8.49C116.248 8.694 116.11 9.078 116.11 9.642L116.128 19.02C116.128 20.268 115.888 21.264 115.408 22.008C114.928 22.764 114.352 23.292 113.68 23.592C113.02 23.904 112.384 24.06 111.772 24.06ZM119.607 21C119.523 21 119.481 20.922 119.481 20.766C119.481 20.634 119.523 20.568 119.607 20.568H119.823C120.279 20.568 120.645 20.466 120.921 20.262C121.197 20.058 121.335 19.68 121.335 19.128L121.353 9.624C121.353 9.06 121.209 8.682 120.921 8.49C120.645 8.286 120.279 8.184 119.823 8.184H119.607C119.523 8.184 119.481 8.106 119.481 7.95C119.481 7.806 119.523 7.734 119.607 7.734H125.439C125.523 7.734 125.565 7.806 125.565 7.95C125.565 8.106 125.523 8.184 125.439 8.184H125.223C124.755 8.184 124.383 8.286 124.107 8.49C123.843 8.682 123.711 9.06 123.711 9.624V19.128C123.711 19.692 123.849 20.076 124.125 20.28C124.401 20.472 124.767 20.568 125.223 20.568H125.439C125.523 20.568 125.565 20.634 125.565 20.766C125.565 20.922 125.523 21 125.439 21H119.607Z" fill="black"/>
</svg>
