<svg width="237" height="35" viewBox="0 0 237 35" fill="none" xmlns="http://www.w3.org/2000/svg">
<line x1="2" y1="26" x2="235" y2="26" stroke="#F3E9E2" stroke-width="4" stroke-linecap="round"/>
<path d="M8.64 28.312C7.44 28.312 6.072 28.008 4.536 27.4C4.328 27.304 4.128 27.256 3.936 27.256C3.712 27.256 3.48 27.336 3.24 27.496C3 27.64 2.712 27.88 2.376 28.216L1.272 23.512L1.224 23.296C1.224 23.264 1.24 23.232 1.272 23.2C1.32 23.168 1.36 23.144 1.392 23.128C1.44 23.112 1.472 23.096 1.488 23.08C1.52 23.064 1.568 23.056 1.632 23.056C1.696 23.056 1.784 23.12 1.896 23.248C3.688 25.968 5.856 27.328 8.4 27.328C9.424 27.328 10.28 27.064 10.968 26.536C11.672 26.008 12.024 25.224 12.024 24.184C12.024 22.968 11.36 22.064 10.032 21.472C9.376 21.184 8.496 20.864 7.392 20.512C7.248 20.464 6.888 20.344 6.312 20.152C5.736 19.96 5.224 19.752 4.776 19.528C2.888 18.568 1.944 17.128 1.944 15.208C1.944 14.488 2.112 13.736 2.448 12.952C2.784 12.168 3.368 11.496 4.2 10.936C5.048 10.36 6.168 10.072 7.56 10.072C8.056 10.072 8.536 10.128 9 10.24C9.48 10.352 10.056 10.52 10.728 10.744C10.984 10.84 11.208 10.888 11.4 10.888C11.848 10.888 12.296 10.616 12.744 10.072L13.968 14.224L14.016 14.392C14.016 14.488 13.944 14.56 13.8 14.608C13.704 14.64 13.632 14.656 13.584 14.656C13.504 14.656 13.424 14.608 13.344 14.512C13.152 14.192 12.808 13.76 12.312 13.216C11.816 12.656 11.144 12.136 10.296 11.656C9.464 11.16 8.528 10.912 7.488 10.912C6.56 10.912 5.848 11.112 5.352 11.512C4.856 11.896 4.528 12.312 4.368 12.76C4.208 13.208 4.128 13.592 4.128 13.912C4.128 14.936 4.656 15.728 5.712 16.288C6.048 16.464 6.488 16.656 7.032 16.864C7.592 17.056 8.16 17.248 8.736 17.44C10.08 17.872 11.088 18.24 11.76 18.544C12.896 19.088 13.704 19.752 14.184 20.536C14.664 21.304 14.904 22.136 14.904 23.032C14.904 24.024 14.656 24.92 14.16 25.72C13.68 26.52 12.968 27.152 12.024 27.616C11.08 28.08 9.952 28.312 8.64 28.312ZM29.3055 25.888C29.4335 25.888 29.4975 25.944 29.4975 26.056L29.4735 26.2C29.2815 26.808 28.9215 27.304 28.3935 27.688C27.8815 28.072 27.3455 28.264 26.7855 28.264C25.6335 28.264 24.8895 27.728 24.5535 26.656C23.9295 27.2 23.2335 27.616 22.4655 27.904C21.6975 28.192 20.9375 28.336 20.1855 28.336C19.1935 28.336 18.4175 28.112 17.8575 27.664C17.2975 27.2 17.0175 26.552 17.0175 25.72C17.0175 24.504 17.6815 23.536 19.0095 22.816C19.3775 22.624 19.7935 22.472 20.2575 22.36C20.7215 22.232 21.3455 22.088 22.1295 21.928C22.3695 21.88 22.7135 21.808 23.1615 21.712C23.6255 21.6 24.0335 21.496 24.3855 21.4V20.32C24.3855 19.408 24.3535 18.76 24.2895 18.376C24.2415 17.976 24.1135 17.648 23.9055 17.392C23.6015 16.992 23.1295 16.792 22.4895 16.792C22.0575 16.792 21.6895 16.928 21.3855 17.2C21.0815 17.456 20.8335 17.96 20.6415 18.712C20.4975 19.256 20.2815 19.664 19.9935 19.936C19.7215 20.192 19.4015 20.32 19.0335 20.32C18.6655 20.32 18.3375 20.216 18.0495 20.008C17.7615 19.784 17.6175 19.472 17.6175 19.072C17.6175 18.768 17.7375 18.392 17.9775 17.944C18.2335 17.48 18.7215 17.056 19.4415 16.672C20.1615 16.288 21.1775 16.096 22.4895 16.096C23.4495 16.096 24.2575 16.224 24.9135 16.48C25.5695 16.736 26.0815 17.08 26.4495 17.512C26.7375 17.832 26.9295 18.184 27.0255 18.568C27.1215 18.952 27.1695 19.424 27.1695 19.984C27.1695 21.072 27.1615 21.904 27.1455 22.48L27.1215 25.168C27.1215 25.856 27.2015 26.304 27.3615 26.512C27.5375 26.72 27.7455 26.824 27.9855 26.824C28.1775 26.824 28.3775 26.76 28.5855 26.632C28.7935 26.488 28.9775 26.28 29.1375 26.008C29.1855 25.928 29.2415 25.888 29.3055 25.888ZM21.7935 27.016C22.2255 27.016 22.6655 26.928 23.1135 26.752C23.5775 26.576 24.0015 26.32 24.3855 25.984C24.3375 25.616 24.3135 25.248 24.3135 24.88L24.3615 22.072C22.8255 22.456 21.6975 22.928 20.9775 23.488C20.2575 24.032 19.8975 24.712 19.8975 25.528C19.8975 25.96 20.0655 26.32 20.4015 26.608C20.7375 26.88 21.2015 27.016 21.7935 27.016ZM43.185 16.36C43.297 16.36 43.353 16.448 43.353 16.624C43.353 16.736 43.329 16.808 43.281 16.84C43.233 16.872 43.129 16.912 42.969 16.96C42.585 17.024 42.233 17.2 41.913 17.488C41.609 17.76 41.297 18.224 40.977 18.88C40.465 19.952 39.001 23.224 36.585 28.696L36.225 29.488C35.537 30.976 34.849 32.008 34.161 32.584C33.489 33.16 32.793 33.448 32.073 33.448C31.369 33.448 30.825 33.288 30.441 32.968C30.057 32.664 29.865 32.312 29.865 31.912C29.865 31.528 29.993 31.216 30.249 30.976C30.505 30.736 30.825 30.616 31.209 30.616C31.465 30.616 31.681 30.64 31.857 30.688C32.033 30.752 32.225 30.84 32.433 30.952C32.625 31.064 32.801 31.144 32.961 31.192C33.121 31.24 33.305 31.264 33.513 31.264C33.833 31.264 34.121 31.12 34.377 30.832C34.649 30.544 34.937 30.096 35.241 29.488C35.449 29.072 35.705 28.52 36.009 27.832L31.689 18.016C31.481 17.6 31.265 17.32 31.041 17.176C30.817 17.016 30.505 16.936 30.105 16.936C29.993 16.936 29.937 16.832 29.937 16.624C29.937 16.448 29.993 16.36 30.105 16.36H35.817C35.929 16.36 35.985 16.448 35.985 16.624C35.985 16.816 35.921 16.92 35.793 16.936C35.409 16.968 35.105 17.048 34.881 17.176C34.673 17.288 34.569 17.448 34.569 17.656C34.569 17.752 34.609 17.896 34.689 18.088C34.769 18.328 35.097 19.136 35.673 20.512C36.265 21.888 36.673 22.848 36.897 23.392L37.449 24.688C39.001 21.248 39.881 19.232 40.089 18.64C40.153 18.416 40.185 18.256 40.185 18.16C40.185 17.744 39.985 17.432 39.585 17.224C39.201 17.016 38.785 16.912 38.337 16.912C38.225 16.912 38.169 16.816 38.169 16.624C38.169 16.448 38.225 16.36 38.337 16.36H43.185ZM56.7743 25.888C56.9023 25.888 56.9662 25.944 56.9662 26.056L56.9423 26.2C56.7503 26.808 56.3903 27.304 55.8623 27.688C55.3503 28.072 54.8143 28.264 54.2543 28.264C53.1023 28.264 52.3583 27.728 52.0223 26.656C51.3983 27.2 50.7023 27.616 49.9343 27.904C49.1663 28.192 48.4063 28.336 47.6543 28.336C46.6623 28.336 45.8863 28.112 45.3263 27.664C44.7663 27.2 44.4863 26.552 44.4863 25.72C44.4863 24.504 45.1503 23.536 46.4783 22.816C46.8463 22.624 47.2623 22.472 47.7263 22.36C48.1903 22.232 48.8143 22.088 49.5983 21.928C49.8383 21.88 50.1823 21.808 50.6303 21.712C51.0943 21.6 51.5023 21.496 51.8543 21.4V20.32C51.8543 19.408 51.8223 18.76 51.7583 18.376C51.7103 17.976 51.5823 17.648 51.3743 17.392C51.0703 16.992 50.5983 16.792 49.9583 16.792C49.5263 16.792 49.1583 16.928 48.8543 17.2C48.5503 17.456 48.3023 17.96 48.1103 18.712C47.9663 19.256 47.7503 19.664 47.4623 19.936C47.1903 20.192 46.8703 20.32 46.5023 20.32C46.1343 20.32 45.8063 20.216 45.5183 20.008C45.2303 19.784 45.0863 19.472 45.0863 19.072C45.0863 18.768 45.2063 18.392 45.4463 17.944C45.7023 17.48 46.1903 17.056 46.9103 16.672C47.6303 16.288 48.6463 16.096 49.9583 16.096C50.9183 16.096 51.7263 16.224 52.3823 16.48C53.0383 16.736 53.5503 17.08 53.9183 17.512C54.2063 17.832 54.3983 18.184 54.4943 18.568C54.5903 18.952 54.6383 19.424 54.6383 19.984C54.6383 21.072 54.6303 21.904 54.6143 22.48L54.5903 25.168C54.5903 25.856 54.6703 26.304 54.8303 26.512C55.0063 26.72 55.2143 26.824 55.4543 26.824C55.6463 26.824 55.8463 26.76 56.0543 26.632C56.2623 26.488 56.4463 26.28 56.6063 26.008C56.6543 25.928 56.7103 25.888 56.7743 25.888ZM49.2623 27.016C49.6943 27.016 50.1343 26.928 50.5823 26.752C51.0463 26.576 51.4703 26.32 51.8543 25.984C51.8063 25.616 51.7823 25.248 51.7823 24.88L51.8303 22.072C50.2943 22.456 49.1663 22.928 48.4463 23.488C47.7263 24.032 47.3663 24.712 47.3663 25.528C47.3663 25.96 47.5343 26.32 47.8703 26.608C48.2063 26.88 48.6703 27.016 49.2623 27.016ZM71.9018 27.424C72.0138 27.424 72.0698 27.512 72.0698 27.688C72.0698 27.896 72.0138 28 71.9018 28H66.0218C65.9098 28 65.8538 27.896 65.8538 27.688C65.8538 27.512 65.9098 27.424 66.0218 27.424H66.2858C66.5098 27.424 66.6858 27.368 66.8138 27.256C66.9578 27.144 67.0298 27.008 67.0298 26.848C67.0298 26.624 66.9498 26.424 66.7898 26.248C66.6138 25.976 65.9018 24.984 64.6538 23.272C64.2698 22.76 63.9818 22.36 63.7898 22.072L62.4938 23.224V26.272C62.4938 26.752 62.6138 27.064 62.8538 27.208C63.0938 27.352 63.4378 27.424 63.8858 27.424H64.1497C64.2618 27.424 64.3178 27.512 64.3178 27.688C64.3178 27.896 64.2618 28 64.1497 28H58.0538C57.9418 28 57.8857 27.896 57.8857 27.688C57.8857 27.512 57.9418 27.424 58.0538 27.424H58.3418C58.7898 27.424 59.1338 27.352 59.3738 27.208C59.6138 27.064 59.7338 26.752 59.7338 26.272L59.6858 12.832C59.6858 12.32 59.5658 11.976 59.3258 11.8C59.0858 11.624 58.7018 11.536 58.1738 11.536C58.0138 11.536 57.9338 11.416 57.9338 11.176C57.9338 11.08 57.9818 11.024 58.0778 11.008C58.2378 10.944 59.7098 10.632 62.4938 10.072V22.168C64.9738 20.056 66.4058 18.776 66.7898 18.328C66.9498 18.152 67.0298 17.936 67.0298 17.68C67.0298 17.456 66.9338 17.272 66.7418 17.128C66.5498 16.968 66.2858 16.888 65.9498 16.888H65.7098C65.5818 16.888 65.5178 16.8 65.5178 16.624C65.5178 16.432 65.5818 16.336 65.7098 16.336H71.3018C71.4298 16.336 71.4938 16.432 71.4938 16.624C71.4938 16.784 71.4298 16.872 71.3018 16.888L70.9898 16.936C70.4618 16.984 69.9658 17.128 69.5018 17.368C69.0378 17.608 68.4698 18.024 67.7978 18.616L65.7098 20.416C66.3018 21.28 67.0138 22.296 67.8458 23.464C68.6938 24.632 69.3898 25.592 69.9338 26.344C70.2538 26.744 70.5258 27.024 70.7498 27.184C70.9738 27.344 71.2698 27.424 71.6378 27.424H71.9018ZM85.5086 25.888C85.6366 25.888 85.7006 25.944 85.7006 26.056L85.6766 26.2C85.4846 26.808 85.1246 27.304 84.5966 27.688C84.0846 28.072 83.5486 28.264 82.9886 28.264C81.8366 28.264 81.0926 27.728 80.7566 26.656C80.1326 27.2 79.4366 27.616 78.6686 27.904C77.9006 28.192 77.1406 28.336 76.3886 28.336C75.3966 28.336 74.6206 28.112 74.0606 27.664C73.5006 27.2 73.2206 26.552 73.2206 25.72C73.2206 24.504 73.8846 23.536 75.2126 22.816C75.5806 22.624 75.9966 22.472 76.4606 22.36C76.9246 22.232 77.5486 22.088 78.3326 21.928C78.5726 21.88 78.9166 21.808 79.3646 21.712C79.8286 21.6 80.2366 21.496 80.5886 21.4V20.32C80.5886 19.408 80.5566 18.76 80.4926 18.376C80.4446 17.976 80.3166 17.648 80.1086 17.392C79.8046 16.992 79.3326 16.792 78.6926 16.792C78.2606 16.792 77.8926 16.928 77.5886 17.2C77.2846 17.456 77.0366 17.96 76.8446 18.712C76.7006 19.256 76.4846 19.664 76.1966 19.936C75.9246 20.192 75.6046 20.32 75.2366 20.32C74.8686 20.32 74.5406 20.216 74.2526 20.008C73.9646 19.784 73.8206 19.472 73.8206 19.072C73.8206 18.768 73.9406 18.392 74.1806 17.944C74.4366 17.48 74.9246 17.056 75.6446 16.672C76.3646 16.288 77.3806 16.096 78.6926 16.096C79.6526 16.096 80.4606 16.224 81.1166 16.48C81.7726 16.736 82.2846 17.08 82.6526 17.512C82.9406 17.832 83.1326 18.184 83.2286 18.568C83.3246 18.952 83.3726 19.424 83.3726 19.984C83.3726 21.072 83.3646 21.904 83.3486 22.48L83.3246 25.168C83.3246 25.856 83.4046 26.304 83.5646 26.512C83.7406 26.72 83.9486 26.824 84.1886 26.824C84.3806 26.824 84.5806 26.76 84.7886 26.632C84.9966 26.488 85.1806 26.28 85.3406 26.008C85.3886 25.928 85.4446 25.888 85.5086 25.888ZM77.9966 27.016C78.4286 27.016 78.8686 26.928 79.3166 26.752C79.7806 26.576 80.2046 26.32 80.5886 25.984C80.5406 25.616 80.5166 25.248 80.5166 24.88L80.5646 22.072C79.0286 22.456 77.9006 22.928 77.1806 23.488C76.4606 24.032 76.1006 24.712 76.1006 25.528C76.1006 25.96 76.2686 26.32 76.6046 26.608C76.9406 26.88 77.4046 27.016 77.9966 27.016ZM97.4664 28C97.3544 28 97.2984 27.896 97.2984 27.688C97.2984 27.512 97.3544 27.424 97.4664 27.424H97.7784C99.1224 27.424 99.7944 26.776 99.7944 25.48V12.544C99.7944 11.504 99.2024 10.984 98.0184 10.984C97.9224 10.984 97.7624 11 97.5384 11.032C96.7704 11.16 95.9464 11.528 95.0664 12.136C94.2024 12.728 93.5544 13.336 93.1224 13.96C93.0584 14.072 92.9784 14.128 92.8824 14.128C92.8344 14.128 92.7784 14.112 92.7144 14.08C92.6024 14.016 92.5464 13.944 92.5464 13.864L92.5704 13.672L93.8664 10.312H108.89L109.13 10.936C109.77 12.632 110.106 13.544 110.138 13.672C110.186 13.768 110.21 13.832 110.21 13.864C110.21 13.944 110.138 14.016 109.994 14.08C109.93 14.112 109.882 14.128 109.85 14.128C109.77 14.128 109.698 14.072 109.634 13.96C109.202 13.336 108.546 12.728 107.666 12.136C106.786 11.528 105.97 11.16 105.218 11.032C104.994 11 104.826 10.984 104.714 10.984C103.546 10.984 102.962 11.504 102.962 12.544V25.48C102.962 26.232 103.146 26.744 103.514 27.016C103.882 27.288 104.37 27.424 104.978 27.424H105.266C105.378 27.424 105.434 27.512 105.434 27.688C105.434 27.896 105.378 28 105.266 28H97.4664ZM119.359 28.312C118.159 28.312 116.791 28.008 115.255 27.4C115.047 27.304 114.847 27.256 114.655 27.256C114.431 27.256 114.199 27.336 113.959 27.496C113.719 27.64 113.431 27.88 113.095 28.216L111.991 23.512L111.943 23.296C111.943 23.264 111.959 23.232 111.991 23.2C112.039 23.168 112.079 23.144 112.111 23.128C112.159 23.112 112.191 23.096 112.207 23.08C112.239 23.064 112.287 23.056 112.351 23.056C112.415 23.056 112.503 23.12 112.615 23.248C114.407 25.968 116.575 27.328 119.119 27.328C120.143 27.328 120.999 27.064 121.687 26.536C122.391 26.008 122.743 25.224 122.743 24.184C122.743 22.968 122.079 22.064 120.751 21.472C120.095 21.184 119.215 20.864 118.111 20.512C117.967 20.464 117.607 20.344 117.031 20.152C116.455 19.96 115.943 19.752 115.495 19.528C113.607 18.568 112.663 17.128 112.663 15.208C112.663 14.488 112.831 13.736 113.167 12.952C113.503 12.168 114.087 11.496 114.919 10.936C115.767 10.36 116.887 10.072 118.279 10.072C118.775 10.072 119.255 10.128 119.719 10.24C120.199 10.352 120.775 10.52 121.447 10.744C121.703 10.84 121.927 10.888 122.119 10.888C122.567 10.888 123.015 10.616 123.463 10.072L124.687 14.224L124.735 14.392C124.735 14.488 124.663 14.56 124.519 14.608C124.423 14.64 124.351 14.656 124.303 14.656C124.223 14.656 124.143 14.608 124.063 14.512C123.871 14.192 123.527 13.76 123.031 13.216C122.535 12.656 121.863 12.136 121.015 11.656C120.183 11.16 119.247 10.912 118.207 10.912C117.279 10.912 116.567 11.112 116.071 11.512C115.575 11.896 115.247 12.312 115.087 12.76C114.927 13.208 114.847 13.592 114.847 13.912C114.847 14.936 115.375 15.728 116.431 16.288C116.767 16.464 117.207 16.656 117.751 16.864C118.311 17.056 118.879 17.248 119.455 17.44C120.799 17.872 121.807 18.24 122.479 18.544C123.615 19.088 124.423 19.752 124.903 20.536C125.383 21.304 125.623 22.136 125.623 23.032C125.623 24.024 125.375 24.92 124.879 25.72C124.399 26.52 123.687 27.152 122.743 27.616C121.799 28.08 120.671 28.312 119.359 28.312ZM137.264 28.312C134.768 28.312 132.952 27.816 131.816 26.824C130.696 25.816 130.136 24.344 130.136 22.408V12.832C130.136 12.08 129.944 11.576 129.56 11.32C129.192 11.048 128.704 10.912 128.096 10.912H127.784C127.672 10.912 127.616 10.808 127.616 10.6C127.616 10.408 127.672 10.312 127.784 10.312H135.56C135.672 10.312 135.728 10.408 135.728 10.6C135.728 10.808 135.672 10.912 135.56 10.912H135.272C134.648 10.912 134.152 11.048 133.784 11.32C133.432 11.576 133.256 12.08 133.256 12.832V21.472C133.256 22.528 133.344 23.472 133.52 24.304C133.696 25.136 134.096 25.856 134.72 26.464C135.344 27.072 136.28 27.376 137.528 27.376C139.336 27.376 140.568 26.768 141.224 25.552C141.88 24.336 142.208 22.808 142.208 20.968V13.048C142.208 12.376 141.992 11.848 141.56 11.464C141.128 11.08 140.656 10.888 140.144 10.888H139.904C139.792 10.888 139.736 10.792 139.736 10.6C139.736 10.408 139.792 10.312 139.904 10.312H145.496C145.608 10.312 145.664 10.408 145.664 10.6C145.664 10.792 145.608 10.888 145.496 10.888H145.256C144.744 10.888 144.272 11.08 143.84 11.464C143.408 11.848 143.192 12.376 143.192 13.048L143.144 21.664C143.144 23.792 142.632 25.432 141.608 26.584C140.584 27.736 139.136 28.312 137.264 28.312ZM149.029 32.08C148.405 32.08 147.845 31.968 147.349 31.744C146.869 31.52 146.493 31.24 146.221 30.904C145.949 30.568 145.813 30.232 145.813 29.896C145.813 29.512 145.933 29.208 146.173 28.984C146.397 28.776 146.653 28.672 146.941 28.672C147.389 28.672 147.821 28.856 148.237 29.224C148.461 29.4 148.773 29.736 149.173 30.232C149.381 30.472 149.557 30.656 149.701 30.784C149.861 30.912 150.021 30.976 150.181 30.976C150.293 30.976 150.397 30.952 150.493 30.904C150.589 30.856 150.653 30.8 150.685 30.736C151.037 30.464 151.293 29.896 151.453 29.032C151.613 28.168 151.693 26.896 151.693 25.216V12.856C151.693 12.088 151.501 11.576 151.117 11.32C150.749 11.048 150.261 10.912 149.653 10.912H149.341C149.229 10.912 149.173 10.816 149.173 10.624C149.173 10.416 149.229 10.312 149.341 10.312H157.117C157.245 10.312 157.309 10.416 157.309 10.624C157.309 10.816 157.245 10.912 157.117 10.912H156.829C156.237 10.912 155.749 11.048 155.365 11.32C154.997 11.592 154.813 12.104 154.813 12.856L154.837 25.36C154.837 27.024 154.517 28.352 153.877 29.344C153.237 30.352 152.469 31.056 151.573 31.456C150.693 31.872 149.845 32.08 149.029 32.08ZM159.476 28C159.364 28 159.308 27.896 159.308 27.688C159.308 27.512 159.364 27.424 159.476 27.424H159.764C160.372 27.424 160.86 27.288 161.228 27.016C161.596 26.744 161.78 26.24 161.78 25.504L161.804 12.832C161.804 12.08 161.612 11.576 161.228 11.32C160.86 11.048 160.372 10.912 159.764 10.912H159.476C159.364 10.912 159.308 10.808 159.308 10.6C159.308 10.408 159.364 10.312 159.476 10.312H167.252C167.364 10.312 167.42 10.408 167.42 10.6C167.42 10.808 167.364 10.912 167.252 10.912H166.964C166.34 10.912 165.844 11.048 165.476 11.32C165.124 11.576 164.948 12.08 164.948 12.832V25.504C164.948 26.256 165.132 26.768 165.5 27.04C165.868 27.296 166.356 27.424 166.964 27.424H167.252C167.364 27.424 167.42 27.512 167.42 27.688C167.42 27.896 167.364 28 167.252 28H159.476Z" fill="black"/>
</svg>
